<?xml version="1.0" encoding="UTF-8"?>
<svg version="1.1" xmlns="http://www.w3.org/2000/svg" width="39" height="50">
<path d="M0 0 C1.06605469 0.02449219 2.13210938 0.04898438 3.23046875 0.07421875 C5.8125 0.3125 5.8125 0.3125 6.8125 1.3125 C6.91225844 3.08368286 6.9433067 4.85882365 6.9453125 6.6328125 C6.94724609 8.2725 6.94724609 8.2725 6.94921875 9.9453125 C6.94535156 11.09773437 6.94148438 12.25015625 6.9375 13.4375 C6.94330078 15.13132812 6.94330078 15.13132812 6.94921875 16.859375 C6.94267501 22.44772816 6.81724348 27.81033335 5.8125 33.3125 C8.28073846 29.96848531 8.28073846 29.96848531 8.5 26 C8.273125 25.443125 8.04625 24.88625 7.8125 24.3125 C8.8025 24.3125 9.7925 24.3125 10.8125 24.3125 C11.4725 22.9925 12.1325 21.6725 12.8125 20.3125 C13.4725 20.3125 14.1325 20.3125 14.8125 20.3125 C14.8125 20.9725 14.8125 21.6325 14.8125 22.3125 C15.4725 22.3125 16.1325 22.3125 16.8125 22.3125 C17.1425 21.3225 17.4725 20.3325 17.8125 19.3125 C19.875 18.625 19.875 18.625 21.8125 18.3125 C21.8125 21.3125 21.8125 24.3125 21.8125 27.3125 C23.1325 27.6425 24.4525 27.9725 25.8125 28.3125 C25.8125 29.3025 25.8125 30.2925 25.8125 31.3125 C26.8025 31.6425 27.7925 31.9725 28.8125 32.3125 C28.99073345 38.55067085 28.10592875 42.82855458 24.34375 47.859375 C21.76859472 50.30314481 19.23947382 50.3125 15.8125 50.3125 C14.3275 49.8175 14.3275 49.8175 12.8125 49.3125 C12.8125 48.6525 12.8125 47.9925 12.8125 47.3125 C9.3475 46.8175 9.3475 46.8175 5.8125 46.3125 C5.8125 47.6325 5.8125 48.9525 5.8125 50.3125 C3.89708862 50.42091951 1.97990227 50.49828079 0.0625 50.5625 C-1.00484375 50.60890625 -2.0721875 50.6553125 -3.171875 50.703125 C-6.1875 50.3125 -6.1875 50.3125 -8.34277344 48.87792969 C-11.11322345 45.02511223 -10.76114293 41.51122576 -10.71875 36.875 C-10.7225769 35.9579126 -10.72640381 35.0408252 -10.73034668 34.09594727 C-10.73306549 32.15933127 -10.72570646 30.22267853 -10.70898438 28.28613281 C-10.68757394 25.32273447 -10.70878669 22.36176049 -10.734375 19.3984375 C-10.73173172 17.51561965 -10.72660673 15.63280331 -10.71875 13.75 C-10.72684692 12.86449463 -10.73494385 11.97898926 -10.74328613 11.06665039 C-10.65017477 4.95461796 -10.65017477 4.95461796 -8.34057617 1.74926758 C-5.43814382 -0.18755228 -3.45911328 -0.12218549 0 0 Z M-6.1875 39.3125 C-6.1875 39.6425 -6.1875 39.9725 -6.1875 40.3125 C2.0625 40.3125 10.3125 40.3125 18.8125 40.3125 C18.8125 39.9825 18.8125 39.6525 18.8125 39.3125 C10.5625 39.3125 2.3125 39.3125 -6.1875 39.3125 Z " fill="#B4956C" transform="translate(10.1875,-0.3125)"/>
<path d="M0 0 C0 3 0 6 0 9 C1.32 9.33 2.64 9.66 4 10 C4 10.99 4 11.98 4 13 C5.485 13.495 5.485 13.495 7 14 C7.17823345 20.23817085 6.29342875 24.51605458 2.53125 29.546875 C-0.04390528 31.99064481 -2.57302618 32 -6 32 C-6.99 31.67 -7.98 31.34 -9 31 C-9 30.34 -9 29.68 -9 29 C-14.94 28.67 -20.88 28.34 -27 28 C-27 23.71 -27 19.42 -27 15 C-23.94010417 14.86979167 -20.88020833 14.73958333 -17.8203125 14.609375 C-14.89958623 14.30361124 -14.89958623 14.30361124 -13.59375 12.09375 C-12.90390352 9.66113348 -13.15887636 8.35514619 -14 6 C-13.01 6 -12.02 6 -11 6 C-10.34 4.68 -9.68 3.36 -9 2 C-8.34 2 -7.68 2 -7 2 C-7 2.66 -7 3.32 -7 4 C-6.34 4 -5.68 4 -5 4 C-4.67 3.01 -4.34 2.02 -4 1 C-2 0 -2 0 0 0 Z " fill="#1F37F5" transform="translate(32,18)"/>
<path d="M0 0 C2.97 0 5.94 0 9 0 C9 7.92 9 15.84 9 24 C6.03 24 3.06 24 0 24 C0 16.08 0 8.16 0 0 Z " fill="#C5C5C2" transform="translate(6,2)"/>
<path d="M0 0 C3.63 0 7.26 0 11 0 C12.71687284 1.71687284 12.13016601 3.97968027 12.1328125 6.3203125 C12.13474609 7.96 12.13474609 7.96 12.13671875 9.6328125 C12.13285156 10.78523437 12.12898438 11.93765625 12.125 13.125 C12.12886719 14.25421875 12.13273437 15.3834375 12.13671875 16.546875 C12.13017501 22.13522816 12.00474348 27.49783335 11 33 C7.37 33 3.74 33 0 33 C0 22.11 0 11.22 0 0 Z M1 2 C1 9.92 1 17.84 1 26 C3.97 26 6.94 26 10 26 C10 18.08 10 10.16 10 2 C7.03 2 4.06 2 1 2 Z " fill="#6C5039" transform="translate(5,0)"/>
<path d="M0 0 C2.42130331 3.63195496 2.21022785 5.38349348 2.125 9.6875 C2.10695313 10.86699219 2.08890625 12.04648437 2.0703125 13.26171875 C2.03550781 14.61716797 2.03550781 14.61716797 2 16 C5.63 16 9.26 16 13 16 C13 17.32 13 18.64 13 20 C11.08458862 20.10841951 9.16740227 20.18578079 7.25 20.25 C5.64898438 20.31960937 5.64898438 20.31960937 4.015625 20.390625 C1 20 1 20 -1.36328125 18.39453125 C-3.50942034 15.2547144 -3.50196379 13.21507803 -3.4375 9.4375 C-3.43556641 7.73400391 -3.43556641 7.73400391 -3.43359375 5.99609375 C-3 3 -3 3 -1.47265625 1.09765625 C-0.98667969 0.73542969 -0.50070312 0.37320312 0 0 Z " fill="#B69476" transform="translate(3,30)"/>
<path d="M0 0 C2.97 0 5.94 0 9 0 C9 4.62 9 9.24 9 14 C6.36 14 3.72 14 1 14 C1.33 12.68 1.66 11.36 2 10 C2 10.99 2 11.98 2 13 C2.66 13 3.32 13 4 13 C4 11.68 4 10.36 4 9 C3.01 8.67 2.02 8.34 1 8 C0.67 5.36 0.34 2.72 0 0 Z " fill="#CACAC8" transform="translate(6,2)"/>
<path d="M0 0 C0.125 2.875 0.125 2.875 0 6 C-2.72164676 8.72164676 -5.29514545 9.10572476 -9 10 C-10.32 10 -11.64 10 -13 10 C-13.33 8.68 -13.66 7.36 -14 6 C-13.01 6 -12.02 6 -11 6 C-10.34 4.68 -9.68 3.36 -9 2 C-8.34 2 -7.68 2 -7 2 C-7 2.66 -7 3.32 -7 4 C-6.34 4 -5.68 4 -5 4 C-4.67 3.01 -4.34 2.02 -4 1 C-2 0 -2 0 0 0 Z " fill="#6CBC2B" transform="translate(32,18)"/>
<path d="M0 0 C3.63 0 7.26 0 11 0 C11 1.98 11 3.96 11 6 C7.37 6 3.74 6 0 6 C0 4.02 0 2.04 0 0 Z " fill="#775738" transform="translate(5,27)"/>
<path d="M0 0 C0.99 0.495 0.99 0.495 2 1 C1.67 2.32 1.34 3.64 1 5 C1.66 5 2.32 5 3 5 C3 3.35 3 1.7 3 0 C4.32 0 5.64 0 7 0 C7 2.97 7 5.94 7 9 C4.69 9 2.38 9 0 9 C0 6.03 0 3.06 0 0 Z " fill="#D9DCDE" transform="translate(7,17)"/>
<path d="M0 0 C3.63 0 7.26 0 11 0 C11 1.32 11 2.64 11 4 C7.04 4 3.08 4 -1 4 C-0.67 2.68 -0.34 1.36 0 0 Z " fill="#896331" transform="translate(5,46)"/>
<path d="M0 0 C2.31 0 4.62 0 7 0 C7 1.98 7 3.96 7 6 C4.69 6 2.38 6 0 6 C0.33 4.68 0.66 3.36 1 2 C1 2.99 1 3.98 1 5 C1.66 5 2.32 5 3 5 C3 3.68 3 2.36 3 1 C2.01 0.67 1.02 0.34 0 0 Z " fill="#D9DDDF" transform="translate(7,10)"/>
<path d="M0 0 C0.33 0.66 0.66 1.32 1 2 C1.66 2 2.32 2 3 2 C3 1.34 3 0.68 3 0 C4.32 0 5.64 0 7 0 C7 1.98 7 3.96 7 6 C6.67 5.01 6.34 4.02 6 3 C5.34 3 4.68 3 4 3 C3.67 3.99 3.34 4.98 3 6 C3 5.01 3 4.02 3 3 C2.34 3 1.68 3 1 3 C0.67 3.99 0.34 4.98 0 6 C0 4.02 0 2.04 0 0 Z " fill="#E2E8EB" transform="translate(7,3)"/>
</svg>
