<?xml version="1.0" encoding="UTF-8"?>
<svg version="1.1" xmlns="http://www.w3.org/2000/svg" width="60" height="70">
<path d="M0 0 C5.28 0 10.56 0 16 0 C16 14.85 16 29.7 16 45 C16.99 44.505 16.99 44.505 18 44 C18.144375 43.34 18.28875 42.68 18.4375 42 C18.623125 41.34 18.80875 40.68 19 40 C20.485 39.505 20.485 39.505 22 39 C21.505 38.566875 21.01 38.13375 20.5 37.6875 C19 36 19 36 19 33 C20.32 33.33 21.64 33.66 23 34 C23.2165625 32.824375 23.2165625 32.824375 23.4375 31.625 C24 29 24 29 25 27 C25.66 27 26.32 27 27 27 C27.495 28.98 27.495 28.98 28 31 C28.66 31 29.32 31 30 31 C30.3403125 30.071875 30.3403125 30.071875 30.6875 29.125 C32.37929835 26.38589791 33.99244161 25.94975528 37 25 C37.36923077 30.41538462 37.36923077 30.41538462 35.5 33.375 C35.005 33.91125 34.51 34.4475 34 35 C34.99 35.66 35.98 36.32 37 37 C37 37.66 37 38.32 37 39 C38.98 39 40.96 39 43 39 C42.34 40.32 41.68 41.64 41 43 C42.65 43.33 44.3 43.66 46 44 C46 47.19062382 45.74024201 49.03903195 45 52 C45 53.32 45 54.64 45 56 C41.66666667 61.66666667 41.66666667 61.66666667 39 63 C38.67 63.99 38.34 64.98 38 66 C35.63386544 67.18306728 34.13219264 67.13354608 31.5 67.125 C30.7059375 67.12757812 29.911875 67.13015625 29.09375 67.1328125 C27 67 27 67 25 66 C25.495 64.515 25.495 64.515 26 63 C24.85785034 62.99383667 24.85785034 62.99383667 23.69262695 62.98754883 C20.23180334 62.9545886 16.77273429 62.88393946 13.3125 62.8125 C12.11431641 62.80669922 10.91613281 62.80089844 9.68164062 62.79492188 C8.52470703 62.76591797 7.36777344 62.73691406 6.17578125 62.70703125 C4.58117065 62.68346558 4.58117065 62.68346558 2.9543457 62.65942383 C-1.25249683 61.72043683 -2.57346517 60.58689615 -5 57 C-5.73367356 53.10260867 -5.70060139 49.26902558 -5.6640625 45.3125 C-5.66884613 44.17723877 -5.67362976 43.04197754 -5.67855835 41.87231445 C-5.68195672 39.47508354 -5.67275891 37.07780625 -5.65185547 34.68066406 C-5.62509208 31.01262006 -5.65160868 27.34763639 -5.68359375 23.6796875 C-5.68028964 21.34895158 -5.6738834 19.01821757 -5.6640625 16.6875 C-5.67418365 15.59155518 -5.68430481 14.49561035 -5.69473267 13.36645508 C-5.67897186 12.34189209 -5.66321106 11.3173291 -5.64697266 10.26171875 C-5.64299469 9.36412842 -5.63901672 8.46653809 -5.63491821 7.54174805 C-5 5 -5 5 0 0 Z M0 48 C0 48.33 0 48.66 0 49 C11.22 49 22.44 49 34 49 C34 48.67 34 48.34 34 48 C22.78 48 11.56 48 0 48 Z M-1 53 C-1 53.33 -1 53.66 -1 54 C10.55 54 22.1 54 34 54 C34 53.67 34 53.34 34 53 C22.45 53 10.9 53 -1 53 Z " fill="#1E36F6" transform="translate(11,2)"/>
<path d="M0 0 C5.28 0 10.56 0 16 0 C16 14.85 16 29.7 16 45 C11.05 45 6.1 45 1 45 C1 50.61 1 56.22 1 62 C-5 57 -5 57 -5.75517273 54.45825195 C-5.75693008 53.56066162 -5.75868744 52.66307129 -5.76049805 51.73828125 C-5.77618332 50.71371826 -5.79186859 49.68915527 -5.80802917 48.63354492 C-5.78510551 46.98962769 -5.78510551 46.98962769 -5.76171875 45.3125 C-5.76508743 44.17723877 -5.76845612 43.04197754 -5.77192688 41.87231445 C-5.77162823 39.47505151 -5.75639826 37.07775036 -5.72729492 34.68066406 C-5.68763499 31.01248564 -5.70658575 27.347925 -5.73242188 23.6796875 C-5.72486246 21.34894431 -5.7139087 19.01820915 -5.69921875 16.6875 C-5.70620285 15.59155518 -5.71318695 14.49561035 -5.72038269 13.36645508 C-5.7013942 12.34189209 -5.6824057 11.3173291 -5.6628418 10.26171875 C-5.65235054 8.91533325 -5.65235054 8.91533325 -5.64164734 7.54174805 C-5 5 -5 5 0 0 Z " fill="#B5956F" transform="translate(11,2)"/>
<path d="M0 0 C3.96 0 7.92 0 12 0 C12 10.89 12 21.78 12 33 C8.37 33 4.74 33 1 33 C0 32 0 32 -0.11352539 28.94897461 C-0.11336634 27.60008729 -0.10767612 26.25119386 -0.09765625 24.90234375 C-0.0962413 24.19348526 -0.09482635 23.48462677 -0.09336853 22.75428772 C-0.08775443 20.48198288 -0.07519963 18.20977525 -0.0625 15.9375 C-0.05748681 14.40039204 -0.05292359 12.86328255 -0.04882812 11.32617188 C-0.03778042 7.55074358 -0.02050641 3.77538829 0 0 Z " fill="#BBBAB7" transform="translate(13,5)"/>
<path d="M0 0 C5.28 0 10.56 0 16 0 C16 12.21 16 24.42 16 37 C11.05 37 6.1 37 1 37 C0.67 24.79 0.34 12.58 0 0 Z M2 3 C1.97534608 7.53897705 1.95716211 12.07791543 1.94506836 16.61694336 C1.9400286 18.16219766 1.9331968 19.70744716 1.92456055 21.25268555 C1.91247924 23.46925029 1.90676827 25.68575218 1.90234375 27.90234375 C1.89718246 28.5971434 1.89202118 29.29194305 1.88670349 30.00779724 C1.88650723 31.6722933 1.93810871 33.33665499 2 35 C2.33 35.33 2.66 35.66 3 36 C6.63 36 10.26 36 14 36 C14 25.11 14 14.22 14 3 C10.04 3 6.08 3 2 3 Z " fill="#755837" transform="translate(11,2)"/>
<path d="M0 0 C0.99 0 1.98 0 3 0 C3 7.26 3 14.52 3 22 C0.69 22 -1.62 22 -4 22 C-4 20.02 -4 18.04 -4 16 C-5.32 15.67 -6.64 15.34 -8 15 C-8 13.35 -8 11.7 -8 10 C-7.01 10 -6.02 10 -5 10 C-4.67 7.69 -4.34 5.38 -4 3 C-3.01 3 -2.02 3 -1 3 C-0.67 2.01 -0.34 1.02 0 0 Z " fill="#D4D7D8" transform="translate(22,12)"/>
<path d="M0 0 C0.46009282 3.95679828 0.33274372 5.54625856 -2.0625 8.8125 C-5.48106616 11.35824075 -7.82040993 11.59811634 -12 12 C-12.33 12.66 -12.66 13.32 -13 14 C-14.32 13.67 -15.64 13.34 -17 13 C-17.33 11.35 -17.66 9.7 -18 8 C-16.68 8.33 -15.36 8.66 -14 9 C-13.7834375 7.824375 -13.7834375 7.824375 -13.5625 6.625 C-13 4 -13 4 -12 2 C-11.34 2 -10.68 2 -10 2 C-9.67 3.32 -9.34 4.64 -9 6 C-8.34 6 -7.68 6 -7 6 C-6.731875 5.38125 -6.46375 4.7625 -6.1875 4.125 C-4.67436553 1.41728569 -3.21502868 0 0 0 Z " fill="#6BBA2D" transform="translate(48,27)"/>
<path d="M0 0 C0.33 0 0.66 0 1 0 C1 7.26 1 14.52 1 22 C3.31 22 5.62 22 8 22 C7.01 22.33 6.02 22.66 5 23 C5 24.98 5 26.96 5 29 C5.99 29 6.98 29 8 29 C8 27.35 8 25.7 8 24 C8.33 24 8.66 24 9 24 C9 25.65 9 27.3 9 29 C9.99 29 10.98 29 12 29 C12 30.32 12 31.64 12 33 C10.18757948 33.02687279 8.37504767 33.04633715 6.5625 33.0625 C5.55316406 33.07410156 4.54382813 33.08570313 3.50390625 33.09765625 C1 33 1 33 0 32 C-0.0883967 29.6243148 -0.11530305 27.27791326 -0.09765625 24.90234375 C-0.0962413 24.19348526 -0.09482635 23.48462677 -0.09336853 22.75428772 C-0.08775443 20.48198288 -0.07519963 18.20977525 -0.0625 15.9375 C-0.05748681 14.40039204 -0.05292359 12.86328255 -0.04882812 11.32617188 C-0.03778042 7.55074358 -0.02050641 3.77538829 0 0 Z " fill="#B9B5AF" transform="translate(13,5)"/>
<path d="M0 0 C4.95 0 9.9 0 15 0 C15 2.31 15 4.62 15 7 C10.05 7 5.1 7 0 7 C0 4.69 0 2.38 0 0 Z " fill="#805F3F" transform="translate(12,40)"/>
<path d="M0 0 C3.875 1.875 3.875 1.875 5 3 C7.69235776 3.23678716 10.36498156 3.42198025 13.0625 3.5625 C14.20041992 3.62727539 14.20041992 3.62727539 15.36132812 3.69335938 C17.24065438 3.79973633 19.12030244 3.90039934 21 4 C21 5.32 21 6.64 21 8 C18.43571485 8.13559675 15.87864784 8.23433188 13.3125 8.3125 C12.59126953 8.35439453 11.87003906 8.39628906 11.12695312 8.43945312 C6.92910301 8.53529445 5.43498564 8.33594622 1.98046875 5.66796875 C0 3 0 3 0 0 Z " fill="#7F5F42" transform="translate(6,61)"/>
<path d="M0 0 C5.28 0 10.56 0 16 0 C15.67 11.55 15.34 23.1 15 35 C14.67 35 14.34 35 14 35 C14 24.44 14 13.88 14 3 C9.71 3 5.42 3 1 3 C0.67 2.01 0.34 1.02 0 0 Z " fill="#876E52" transform="translate(11,2)"/>
<path d="M0 0 C2.31 0 4.62 0 7 0 C7 2.97 7 5.94 7 9 C4.69 9 2.38 9 0 9 C0 6.03 0 3.06 0 0 Z " fill="#CBCDCD" transform="translate(14,5)"/>
<path d="M0 0 C0.99 0 1.98 0 3 0 C3 2.97 3 5.94 3 9 C2.01 9 1.02 9 0 9 C0 6.03 0 3.06 0 0 Z " fill="#E2E8EB" transform="translate(18,5)"/>
<path d="M0 0 C2.46800047 1.15173355 4.04783565 2.04783565 6 4 C5.625 6.125 5.625 6.125 5 8 C2.5 5.6875 2.5 5.6875 0 3 C0 2.01 0 1.02 0 0 Z " fill="#B9956E" transform="translate(6,61)"/>
<path d="M0 0 C0.99 0 1.98 0 3 0 C3 1.65 3 3.3 3 5 C0.69 5 -1.62 5 -4 5 C-4 4.34 -4 3.68 -4 3 C-3.01 3 -2.02 3 -1 3 C-0.67 2.01 -0.34 1.02 0 0 Z " fill="#DFE4E7" transform="translate(22,12)"/>
<path d="M0 0 C0.99 0 1.98 0 3 0 C3 1.98 3 3.96 3 6 C2.01 6 1.02 6 0 6 C0 4.02 0 2.04 0 0 Z " fill="#E0E5E7" transform="translate(22,28)"/>
<path d="M0 0 C0.99 0 1.98 0 3 0 C3 1.98 3 3.96 3 6 C2.01 6 1.02 6 0 6 C0 4.02 0 2.04 0 0 Z " fill="#E2E7EA" transform="translate(18,28)"/>
<path d="M0 0 C0.99 0 1.98 0 3 0 C3 1.98 3 3.96 3 6 C2.01 6 1.02 6 0 6 C0 4.02 0 2.04 0 0 Z " fill="#DFE4E7" transform="translate(14,28)"/>
<path d="M0 0 C0.99 0 1.98 0 3 0 C3 1.98 3 3.96 3 6 C2.01 6 1.02 6 0 6 C0 4.02 0 2.04 0 0 Z " fill="#DFE4E6" transform="translate(14,15)"/>
<path d="M0 0 C0.99 0 1.98 0 3 0 C3 1.98 3 3.96 3 6 C2.01 6 1.02 6 0 6 C0 4.02 0 2.04 0 0 Z " fill="#E5EAEE" transform="translate(22,5)"/>
<path d="M0 0 C0.99 0 1.98 0 3 0 C3 1.98 3 3.96 3 6 C2.01 6 1.02 6 0 6 C0 4.02 0 2.04 0 0 Z " fill="#E4EAED" transform="translate(14,5)"/>
</svg>
